<svg xmlns="http://www.w3.org/2000/svg" viewBox="0 0 64 64">
  <rect width="64" height="64" rx="18" fill="#0f172a" />
  <circle cx="46" cy="18" r="6" fill="#60a5fa" />
  <path
    d="M17 35.5C17 26.6 24.1 19 33 19h7.4c7.5 0 13.6 5.8 13.6 12.9 0 7.9-6.5 14.6-15.4 14.6H30.7L21 53l2.4-8.2c-4.2-1.4-6.4-4.3-6.4-9.3Z"
    fill="#f8fafc"
  />
  <path
    d="M24 24h12.2c2.8 0 5 2.2 5 4.8s-2.2 4.8-5 4.8H30v3.6h10.6c2.8 0 5 2.1 5 4.8 0 2.6-2.2 4.7-5 4.7H24V24Zm6 8.8h6c1.1 0 2-.8 2-1.9s-.9-1.9-2-1.9h-6v3.8Z"
    fill="#2563eb"
  />
  <path
    d="M18 42.5c3.8-.4 7.3 1 10.2 4.3-4.3.4-7.7 2.2-10.5 5.7-.6-3.7-.5-7 .3-10Z"
    fill="#93c5fd"
  />
</svg>
